<svg width="57" height="74" xmlns="http://www.w3.org/2000/svg"><g fill="#0A0B09" fill-rule="evenodd"><path d="M.263 0v55.801H28.21V27.846h27.835V0H.264"/><path d="M56.044 55.801V27.902l-27.885 27.9h27.885M3.522 69.665c1.703 0 2.932-1.58 2.932-3.863 0-2.073-.738-3.618-2.669-3.618-.842 0-1.755.491-2.756 1.387v5.005c.93.79 1.843 1.09 2.493 1.09M.257 57.511h.772v3.653l-.035 1.651c.86-.72 1.878-1.317 2.914-1.317 2.247 0 3.37 1.686 3.37 4.303 0 2.862-1.737 4.548-3.721 4.548-.808 0-1.738-.386-2.528-1.001H.994l-.088.79h-.65V57.512M10.456 69.683c.966 0 1.826-.474 2.862-1.37V65.45c-3.459.404-4.635 1.212-4.635 2.547 0 1.212.808 1.686 1.773 1.686m2.862-4.83c.035-1.282-.334-2.67-1.984-2.67-1.141 0-2.124.563-2.686.984l-.351-.58c.597-.42 1.755-1.088 3.125-1.088 2.001 0 2.668 1.44 2.668 3.249v5.391h-.65l-.087-1.089h-.035c-.86.685-1.879 1.3-2.985 1.3-1.334 0-2.458-.72-2.458-2.318 0-1.862 1.703-2.757 5.443-3.179M18.883 61.499c1.158 0 1.913.51 2.475 1.036l-.457.544c-.544-.509-1.176-.895-2-.895-1.721 0-3.055 1.528-3.055 3.758 0 2.213 1.21 3.723 3.054 3.723.895 0 1.668-.439 2.247-.966l.404.527c-.72.65-1.615 1.124-2.686 1.124-2.177 0-3.827-1.616-3.827-4.408 0-2.827 1.79-4.443 3.845-4.443M22.604 57.512h.773v9.308h.035l4.16-5.11h.896l-2.739 3.336 3.195 5.093h-.86l-2.791-4.513-1.896 2.213v2.3h-.773V57.512"/><path d="M32.077 69.665c.93 0 1.756-.492 2.651-1.387v-5.005c-.895-.79-1.632-1.09-2.458-1.09-1.685 0-2.966 1.634-2.966 3.759 0 2.23.983 3.723 2.773 3.723m.141-8.166c1.018 0 1.703.386 2.545 1.036l-.035-1.546v-3.477h.773V70.14h-.667l-.07-1.089h-.053c-.685.685-1.615 1.3-2.739 1.3-2.124 0-3.493-1.563-3.493-4.408 0-2.722 1.738-4.443 3.739-4.443M36.66 61.71h.666l.07 1.563h.053c.562-1.037 1.387-1.774 2.388-1.774.316 0 .561.035.842.175l-.175.703a1.836 1.836 0 0 0-.773-.14c-.754 0-1.65.579-2.3 2.16v5.742h-.772v-8.43M44.208 69.665c1.703 0 2.984-1.51 2.984-3.723 0-2.23-1.281-3.758-2.984-3.758s-2.967 1.528-2.967 3.758c0 2.213 1.264 3.723 2.967 3.723m0-8.166c2.036 0 3.792 1.616 3.792 4.443 0 2.792-1.756 4.408-3.792 4.408-2.02 0-3.774-1.616-3.774-4.408 0-2.827 1.755-4.443 3.774-4.443M52.318 69.665c1.703 0 2.932-1.58 2.932-3.863 0-2.073-.737-3.618-2.669-3.618-.842 0-1.737.491-2.756 1.387v5.005c.966.79 1.844 1.09 2.493 1.09m-2.493 1.21v3.074h-.772V61.71h.667l.07 1.053h.053c.825-.65 1.826-1.264 2.861-1.264 2.247 0 3.37 1.686 3.37 4.303 0 2.862-1.737 4.548-3.72 4.548-.79 0-1.65-.386-2.529-1.036v1.563"/></g></svg>