<svg width="16" height="11" xmlns="http://www.w3.org/2000/svg"><path d="M13.593 4.127c-.1-1.424-1.308-2.556-2.793-2.556-.19 0-.378.02-.56.057A4.423 4.423 0 0 0 6.8 0C4.685 0 2.913 1.466 2.492 3.433.998 4.029 0 5.46 0 7.07 0 9.242 1.79 11 4 11h8.4c1.988 0 3.6-1.584 3.6-3.536 0-1.517-.98-2.843-2.407-3.337zM12.4 9.821H4c-1.547 0-2.8-1.23-2.8-2.75 0-1.384 1.042-2.531 2.4-2.723v-.027c0-1.736 1.432-3.142 3.2-3.142 1.338 0 2.482.805 2.96 1.95.28-.237.643-.379 1.04-.379.883 0 1.6.705 1.6 1.571 0 .29-.08.563-.22.796.072-.007.148-.01.22-.01 1.325 0 2.4 1.056 2.4 2.357 0 1.302-1.075 2.357-2.4 2.357z" fill="#999" fill-rule="nonzero"/></svg>