<svg width="65" height="74" xmlns="http://www.w3.org/2000/svg"><g fill="none" fill-rule="evenodd"><path d="M48.626 13.755c-3.793-2.356-7.358-3.277-10.941-5.624-2.211-1.5-5.29-5.053-7.863-8.122-.496 4.921-2.002 6.916-3.717 8.34-3.64 2.85-5.928 3.706-9.073 5.416C14.382 15.113.019 23.663.019 42.045c0 18.38 15.516 31.917 32.738 31.917s32.167-12.463 32.167-31.348c0-18.885-14.01-27.434-16.298-28.859z" fill="#00598E" fill-rule="nonzero"/><path d="M42.812 57.994c1.144 0 2.364.076 3.222.646.857.57 1.353 1.852 1.639 2.564.286.713 0 1.14-.572 1.425-.495.285-.572.143-1.067-.779-.496-.921-.934-1.852-3.431-1.852s-3.288.855-4.499 1.852c-1.21.998-1.64 1.35-2.078.78-.438-.57-.286-1.14.496-1.853.782-.713 2.078-1.852 3.288-2.356 1.21-.503 1.859-.427 3.002-.427zM30.956 66.116c1.43 1.14 3.574 2.07 8.149 2.07 4.575 0 7.786-1.292 9.216-2.355.648-.494.934-.076 1 .209.068.285.21.712-.285 1.215-.362.361-3.64 2.641-7.51 2.993-3.87.351-9.074.57-12.219-2.28-.495-.494-.362-1.216 0-1.501.362-.285.648-.494 1.068-.494.419 0 .362 0 .581.143z" fill="#FFF" fill-rule="nonzero"/><path d="M13.438 60.7c5.433-.075 6.434-.997 11.228-3.134C50.542 46.024 55.336 35.48 56.26 33.058c.925-2.423 2.288-6.346.858-10.687a35.485 35.485 0 0 1-.62-2.052c-3.44-3.828-6.852-5.927-7.881-6.564-3.717-2.356-7.368-3.277-10.942-5.624-2.21-1.424-5.29-5.053-7.863-8.122-.495 4.921-1.925 6.983-3.717 8.34-3.64 2.85-5.928 3.706-9.073 5.416C14.372 15.18 0 23.653 0 42.035c0 5.87 1.582 11.247 4.298 15.845l.706-.029c1.496 1.349 3.86 2.926 8.434 2.85z" fill="#0073BA" fill-rule="nonzero"/><path d="M48.607 13.755c-3.717-2.356-7.358-3.277-10.941-5.624-2.211-1.424-5.29-5.053-7.863-8.122-.496 4.921-1.925 6.983-3.717 8.34-3.641 2.85-5.928 3.706-9.074 5.416C14.372 15.18 0 23.653 0 42.035c0 5.87 1.582 11.247 4.298 15.845 5.786 9.803 16.717 16.073 28.44 16.073 17.232 0 32.167-12.464 32.167-31.348 0-10.364-4.222-17.622-8.416-22.286-3.44-3.838-6.853-5.927-7.882-6.564zm8.692 8.331c4.69 5.852 7.072 12.748 7.072 20.519 0 4.502-.858 8.758-2.554 12.653a29.205 29.205 0 0 1-6.891 9.718c-5.861 5.452-13.734 8.454-22.178 8.454-4.175 0-8.273-.798-12.18-2.365a32.55 32.55 0 0 1-10.275-6.555c-6.3-5.927-9.76-13.907-9.76-22.475 0-7.628 2.488-14.41 7.387-20.158 3.746-4.389 7.787-6.82 9.34-7.656.763-.409 1.468-.78 2.154-1.13 2.154-1.103 4.194-2.148 6.996-4.333 1.496-1.13 3.088-2.925 3.764-7.476 2.364 2.803 5.1 5.947 7.196 7.296 1.859 1.225 3.765 2.08 5.604 2.907 1.744.779 3.546 1.596 5.328 2.726l.067.038c5.232 3.24 8.015 6.707 8.93 7.837z" fill="#004975" fill-rule="nonzero"/><path d="M30.165 1.425c1 2.926.858 4.417.858 5.054 0 .636-.362 2.355-1.506 3.21-.496.361-.648.646-.648.713 0 .285.648.494.648 1.14 0 .779-.362 2.356-4.146 6.127s-9.226 7.124-13.438 9.195c-4.213 2.071-6.215 1.92-6.786.922-.572-.998.21-3.211 2.859-6.127 2.65-2.917 11.008-7.125 11.008-7.125L29.45 7.267l.572-2.774" fill="#93C5E4" fill-rule="nonzero"/><path d="M30.165 1.349c-.648 4.702-2.078 6.127-4.003 7.618-3.221 2.423-6.367 3.914-7.072 4.275-1.858.931-8.578 4.636-12.085 9.974-1.067 1.634 0 2.28.21 2.423.21.142 2.65.427 7.863-2.708 5.213-3.134 7.51-4.977 10.445-8.036 1.573-1.634 1.792-2.565 1.792-2.992 0-.494-.362-.713-.934-.855-.286-.076-.362-.21 0-.428s1.85-.93 2.211-1.216c.363-.285 2.078-1.425 2.145-3.277.067-1.852-.067-3.135-.572-4.778zM14.087 53.149c.076-5.557 5.29-10.753 11.865-10.83 8.368-.075 14.154 8.265 18.376 8.19 3.574-.077 10.436-7.05 13.8-7.05 3.574 0 4.575 3.705 4.575 5.91 0 2.203-.715 6.193-2.43 8.691-1.716 2.498-2.783 3.42-4.785 3.277-2.573-.209-7.72-8.188-11.008-8.34-4.146-.143-13.152 8.625-20.224 8.625-4.289 0-5.576-.646-7.005-1.567-2.173-1.491-3.24-3.771-3.164-6.906z" fill="#FFF" fill-rule="nonzero"/><path d="M57.109 22.371c1.43 4.35.076 8.264-.858 10.687-.934 2.422-5.719 12.966-31.595 24.508-4.784 2.137-5.795 3.059-11.227 3.135-4.575.076-6.939-1.501-8.435-2.85l-.705.029c5.785 9.803 16.717 16.073 28.44 16.073 17.231 0 32.166-12.464 32.166-31.348 0-10.364-4.222-17.622-8.416-22.286.153.542.363 1.216.63 2.052z"/></g></svg>