<svg width="20" height="20" 
    xmlns="http://www.w3.org/2000/svg">
    <path d="M17.5 0h-15A2.502 2.502 0 0 0 0 2.5v11.25c0 1.379 1.121 2.5 2.5 2.5h3.75v3.281a.467.467 0 0 0 .746.375l4.879-3.656H17.5c1.379 0 2.5-1.121 2.5-2.5V2.5C20 1.121 18.879 0 17.5 0zm1.25 13.75c0 .688-.563 1.25-1.25 1.25h-6.043l-.332.25L7.5 17.969V15h-5c-.688 0-1.25-.563-1.25-1.25V2.5c0-.688.563-1.25 1.25-1.25h15c.688 0 1.25.563 1.25 1.25v11.25zM10 10.312a.935.935 0 0 0-.938.938c0 .52.418.938.938.938s.938-.418.938-.938a.935.935 0 0 0-.938-.938zm-.332-.937h.664c.164 0 .3-.129.313-.293l.273-4.375a.313.313 0 0 0-.313-.332h-1.21a.313.313 0 0 0-.313.332l.273 4.375a.315.315 0 0 0 .313.293z" fill-rule="nonzero" fill="#236192"/>
</svg>