<svg width="75" height="54" xmlns="http://www.w3.org/2000/svg"><g fill="none" fill-rule="evenodd"><g fill="#000" fill-rule="nonzero"><path d="M6.15 7.85h10.949c3.213.028 5.542.96 6.986 2.795 1.444 1.836 1.92 4.343 1.43 7.522a14.492 14.492 0 0 1-1.267 4.275 12.708 12.708 0 0 1-2.614 3.781c-1.362 1.425-2.82 2.329-4.372 2.713-1.552.384-3.16.575-4.82.575H7.538l-1.553 7.81H.308L6.15 7.85m4.78 4.685l-2.451 12.33c.163.028.326.042.49.042h.572c2.614.027 4.794-.233 6.536-.781 1.743-.576 2.915-2.576 3.514-6.001.49-2.877 0-4.535-1.47-4.973-1.445-.439-3.255-.644-5.434-.617-.327.027-.64.041-.94.041h-.858l.04-.04M31.984 0h5.637l-1.593 7.85h5.066c2.778.056 4.848.631 6.21 1.727 1.389 1.096 1.797 3.179 1.225 6.247l-2.737 13.687h-5.72l2.615-13.07c.272-1.37.19-2.343-.245-2.918-.435-.576-1.375-.864-2.819-.864l-4.535-.04-3.35 16.892h-5.637L31.984 0M54.584 7.85h10.949c3.213.028 5.542.96 6.986 2.795 1.443 1.836 1.92 4.343 1.43 7.522a14.492 14.492 0 0 1-1.267 4.275 12.708 12.708 0 0 1-2.615 3.781c-1.362 1.425-2.819 2.329-4.371 2.713-1.553.384-3.16.575-4.82.575h-4.903l-1.553 7.81h-5.679l5.843-29.47m4.78 4.685l-2.452 12.33c.164.028.327.042.49.042h.573c2.614.027 4.793-.233 6.536-.781 1.743-.576 2.915-2.576 3.514-6.001.49-2.877 0-4.535-1.471-4.973-1.444-.439-3.255-.644-5.434-.617-.327.027-.64.041-.94.041h-.857l.04-.04"/></g><text font-family="Montserrat-SemiBold, Montserrat" font-size="10" font-weight="500" fill="#9B9B9B" transform="translate(.308)"><tspan x="7.35" y="52">Application</tspan></text></g></svg>