<?xml version="1.0" encoding="UTF-8"?>
<svg width="16px" height="14px" viewBox="0 0 16 14" version="1.1" xmlns="http://www.w3.org/2000/svg" xmlns:xlink="http://www.w3.org/1999/xlink">
    <!-- Generator: Sketch 51.2 (57519) - http://www.bohemiancoding.com/sketch -->
    <title>Group</title>
    <desc>Created with Sketch.</desc>
    <defs></defs>
    <g id="Symbols" stroke="none" stroke-width="1" fill="none" fill-rule="evenodd">
        <g id="cogs" transform="translate(-7.000000, -7.000000)" fill="#236192" fill-rule="nonzero">
            <g id="Group" transform="translate(7.000000, 7.000000)">
                <g id="Shape">
                    <path d="M13.4479751,5.22303502 L13.3856698,5.11984436 C13.2834891,5.1277821 13.1838006,5.1277821 13.0816199,5.11984436 L13.0193146,5.22568093 C12.8747664,5.46910506 12.5931464,5.58023346 12.3339564,5.49291829 C11.9900312,5.37914397 11.7607477,5.26007782 11.4791277,5.01400778 C11.2548287,4.81821012 11.2,4.47688716 11.3445483,4.20964981 L11.4068536,4.09587549 C11.3495327,4.0059144 11.2996885,3.91330739 11.2548287,3.81540856 L11.0280374,3.81540856 C10.7389408,3.81540856 10.494704,3.59844358 10.4398754,3.29680934 C10.3750779,2.93431907 10.3725857,2.65649805 10.4423676,2.2781323 C10.494704,1.97914397 10.7439252,1.76217899 11.0305296,1.76217899 L11.2548287,1.76217899 C11.2996885,1.66428016 11.3495327,1.57167315 11.4068536,1.48171206 L11.3420561,1.36264591 C11.1975078,1.09805447 11.2523364,0.762023346 11.4716511,0.560933852 C11.7358255,0.320155642 11.9626168,0.182568093 12.3065421,0.0582101167 C12.5757009,-0.039688716 12.8722741,0.0767315175 13.0168224,0.338677043 L13.0816199,0.455097276 C13.1838006,0.447159533 13.2834891,0.447159533 13.3856698,0.455097276 L13.4504673,0.338677043 C13.5950156,0.0767315175 13.8915888,-0.039688716 14.1632399,0.0608560311 C14.494704,0.179922179 14.7190031,0.314863813 14.9981308,0.566225681 C15.2174455,0.764669261 15.2697819,1.10070039 15.1252336,1.36529183 L15.0604361,1.48171206 C15.117757,1.57167315 15.1676012,1.66428016 15.2124611,1.76217899 L15.3395639,1.76217899 C15.6286604,1.76217899 15.8728972,1.97914397 15.9277259,2.28077821 C15.9925234,2.64326848 15.9950156,2.92108949 15.9252336,3.29945525 C15.8728972,3.59844358 15.623676,3.81540856 15.3370717,3.81540856 L15.2124611,3.81540856 C15.1676012,3.91330739 15.117757,4.0059144 15.0604361,4.09587549 L15.1227414,4.20964981 C15.2697819,4.47953307 15.2099688,4.82085603 14.9856698,5.0166537 C14.7190031,5.24949416 14.4897196,5.37120623 14.1383178,5.49027237 C13.8766355,5.57758755 13.5925234,5.46910506 13.4479751,5.22303502 Z M13.7520249,4.31019455 L14.0161994,4.79439689 C14.1831776,4.72031128 14.3376947,4.62505837 14.482243,4.50863813 L14.2180685,4.0244358 L14.3775701,3.82599222 C14.4971963,3.6751751 14.5919003,3.50583658 14.6517134,3.32062257 L14.7339564,3.07455253 L15.2598131,3.07455253 C15.282243,2.88669261 15.282243,2.69354086 15.2598131,2.50568093 L14.7339564,2.50568093 L14.6517134,2.25961089 C14.5894081,2.07439689 14.4971963,1.90505837 14.3775701,1.75424125 L14.2180685,1.55579767 L14.4797508,1.06894942 C14.3376947,0.952529183 14.1806854,0.857276265 14.0137072,0.783190661 L13.7495327,1.267393 L13.5077882,1.21976654 C13.3258567,1.18272374 13.1389408,1.18272374 12.9570093,1.21976654 L12.7152648,1.267393 L12.4510903,0.783190661 C12.2866044,0.85463035 12.129595,0.952529183 11.9875389,1.06894942 L12.2517134,1.55315175 L12.0922118,1.75159533 C11.9725857,1.90241245 11.8778816,2.07175097 11.8180685,2.25696498 L11.7358255,2.50303502 L11.2099688,2.50303502 C11.1875389,2.69089494 11.1875389,2.88404669 11.2099688,3.07190661 L11.7358255,3.07190661 L11.8180685,3.31797665 C11.8803738,3.50319066 11.9725857,3.67252918 12.0922118,3.8233463 L12.2517134,4.02178988 L11.9875389,4.50863813 C12.129595,4.62505837 12.2866044,4.72031128 12.4535826,4.79439689 L12.717757,4.31019455 L12.9595016,4.35782101 C13.141433,4.39486381 13.3283489,4.39486381 13.5102804,4.35782101 L13.7520249,4.31019455 Z M3.64610592,12.0494942 L3.64610592,11.2133852 C3.32461059,11.0678599 3.02056075,10.88 2.73894081,10.6550973 L2.05358255,11.0757977 C1.80934579,11.2239689 1.50280374,11.1736965 1.31339564,10.9540856 C0.710280374,10.2582101 0.353894081,9.64435798 0.0523364486,8.62303502 C-0.0323987539,8.33992218 0.0797507788,8.03299611 0.321495327,7.88217899 L1.00186916,7.4614786 C0.959501558,7.09105058 0.959501558,6.71797665 1.00186916,6.34754864 L0.321495327,5.92949416 C0.0797507788,5.78132296 -0.0323987539,5.47175097 0.0523364486,5.18863813 C0.353894081,4.172607 0.70529595,3.55875486 1.31339564,2.85758755 C1.50280374,2.63797665 1.81183801,2.58770428 2.05358255,2.73587549 L2.7364486,3.15657588 C3.01806854,2.93167315 3.32211838,2.74645914 3.64361371,2.59828794 L3.64361371,1.76217899 C3.64361371,1.46319066 3.83800623,1.20653696 4.11214953,1.14303502 C4.97694704,0.936653696 5.65732087,0.912840467 6.64672897,1.14303502 C6.92087227,1.20653696 7.11775701,1.46583658 7.11775701,1.76217899 L7.11775701,2.59828794 C7.43925234,2.74381323 7.74330218,2.93167315 8.02492212,3.15392996 L8.70778816,2.73587549 C8.95202492,2.58770428 9.26105919,2.63797665 9.45046729,2.85758755 C10.1208723,3.64077821 10.4847352,4.3366537 10.7489097,5.19922179 C10.8336449,5.4770428 10.728972,5.77867704 10.494704,5.93214008 L9.87165109,6.35019455 C9.91401869,6.72062257 9.91401869,7.0936965 9.87165109,7.46412451 L10.5719626,7.92715953 C10.7862928,8.07003891 10.8959502,8.33992218 10.8411215,8.6018677 C10.6691589,9.43003891 10.0186916,10.3111284 9.44797508,10.9620233 C9.25856698,11.1789883 8.95202492,11.2266148 8.71028037,11.0784436 L8.02492212,10.6577432 C7.74330218,10.8826459 7.43925234,11.0678599 7.11775701,11.2160311 L7.11775701,12.0521401 C7.11775701,12.3484825 6.92336449,12.6077821 6.64922118,12.671284 C5.71464174,12.8908949 5.0317757,12.888249 4.10965732,12.671284 C3.84049844,12.6051362 3.64610592,12.3458366 3.64610592,12.0494942 Z M4.44361371,11.8854475 C5.06168224,12.0177432 5.70218069,12.0177432 6.32024922,11.8854475 L6.32024922,10.6233463 L6.58691589,10.5228016 C7.00560748,10.3666926 7.39190031,10.1285603 7.73084112,9.82163424 L7.94517134,9.62583658 L8.97694704,10.2582101 C9.39563863,9.75284047 9.82429907,9.16544747 10.0261682,8.53307393 L8.99439252,7.90070039 L9.04672897,7.60700389 C9.12647975,7.14132296 9.12647975,6.66770428 9.04672897,6.20202335 L8.99439252,5.90832685 L10.0261682,5.27595331 C9.82429907,4.64357977 9.39563863,4.05354086 8.97694704,3.55081712 L7.94517134,4.18319066 L7.73084112,3.987393 C7.39190031,3.67782101 7.00809969,3.44233463 6.58691589,3.28622568 L6.32024922,3.18568093 L6.32024922,1.92622568 C5.70218069,1.79392996 5.06168224,1.79392996 4.44361371,1.92622568 L4.44361371,3.18832685 L4.17694704,3.2888716 C3.75825545,3.44498054 3.37196262,3.68311284 3.03302181,3.99003891 L2.81869159,4.18583658 L1.78691589,3.55346304 C1.36962607,4.05709277 1.05030792,4.64339384 0.847352025,5.27859922 L1.87912773,5.91097276 L1.82679128,6.20466926 C1.7470405,6.67035019 1.7470405,7.14396887 1.82679128,7.60964981 L1.87912773,7.9033463 L0.847352025,8.53571984 C1.04922118,9.16809339 1.3682243,9.7581323 1.78691589,10.260856 L2.81869159,9.62848249 L3.03302181,9.82428016 C3.37196262,10.1338521 3.75576324,10.3693385 4.17694704,10.5254475 L4.44361371,10.6259922 L4.44361371,11.8854475 Z M5.40062305,9.09929961 C4.26168224,9.09929961 3.33457944,8.11501946 3.33457944,6.90583658 C3.33457944,5.6966537 4.26168224,4.71237354 5.40062305,4.71237354 C6.53956386,4.71237354 7.46666667,5.6966537 7.46666667,6.90583658 C7.46666667,8.11501946 6.53956386,9.09929961 5.40062305,9.09929961 Z M5.40062305,5.55906615 C4.70280374,5.55906615 4.13208723,6.16233463 4.13208723,6.90583658 C4.13208723,7.64933852 4.70031153,8.252607 5.40062305,8.252607 C6.09844237,8.252607 6.66915888,7.64933852 6.66915888,6.90583658 C6.66915888,6.16233463 6.10093458,5.55906615 5.40062305,5.55906615 Z M13.4479751,13.2771984 L13.3856698,13.1740078 C13.2834891,13.1819455 13.1838006,13.1819455 13.0816199,13.1740078 L13.0193146,13.2798444 C12.8747664,13.5232685 12.5931464,13.6343969 12.3339564,13.5470817 C11.9900312,13.4333074 11.7607477,13.3142412 11.4791277,13.0681712 C11.2548287,12.8723735 11.2,12.5310506 11.3445483,12.2638132 L11.4068536,12.1500389 C11.3495327,12.0600778 11.2996885,11.9674708 11.2548287,11.869572 L11.0280374,11.869572 C10.7389408,11.869572 10.494704,11.652607 10.4398754,11.3509728 C10.3750779,10.9884825 10.3725857,10.7106615 10.4423676,10.3322957 C10.494704,10.0333074 10.7439252,9.81634241 11.0305296,9.81634241 L11.2548287,9.81634241 C11.2996885,9.71844358 11.3495327,9.62583658 11.4068536,9.53587549 L11.3420561,9.41680934 C11.1975078,9.1522179 11.2523364,8.81618677 11.4716511,8.61509728 C11.7358255,8.37431907 11.9626168,8.23673152 12.3065421,8.11237354 C12.5757009,8.01447471 12.8722741,8.13089494 13.0168224,8.39284047 L13.0816199,8.5092607 C13.1838006,8.50132296 13.2834891,8.50132296 13.3856698,8.5092607 L13.4504673,8.39284047 C13.5950156,8.13089494 13.8915888,8.01447471 14.1632399,8.11501946 C14.494704,8.2340856 14.7190031,8.36902724 14.9981308,8.62038911 C15.2174455,8.81883268 15.2697819,9.15486381 15.1252336,9.41945525 L15.0604361,9.53587549 C15.117757,9.62583658 15.1676012,9.71844358 15.2124611,9.81634241 L15.3395639,9.81634241 C15.6286604,9.81634241 15.8728972,10.0333074 15.9277259,10.3349416 C15.9925234,10.6974319 15.9950156,10.9752529 15.9252336,11.3536187 C15.8728972,11.652607 15.623676,11.869572 15.3370717,11.869572 L15.2124611,11.869572 C15.1676012,11.9674708 15.117757,12.0600778 15.0604361,12.1500389 L15.1227414,12.2638132 C15.2697819,12.5336965 15.2099688,12.8750195 14.9856698,13.0708171 C14.7190031,13.3036576 14.4897196,13.4253696 14.1383178,13.5444358 C13.8766355,13.6291051 13.5925234,13.5206226 13.4479751,13.2771984 Z M13.7520249,12.3617121 L14.0161994,12.8459144 C14.1831776,12.7718288 14.3376947,12.6765759 14.482243,12.5601556 L14.2180685,12.0759533 L14.3775701,11.8775097 C14.4971963,11.7266926 14.5919003,11.5573541 14.6517134,11.3721401 L14.7339564,11.12607 L15.2598131,11.12607 C15.282243,10.9382101 15.282243,10.7450584 15.2598131,10.5571984 L14.7339564,10.5571984 L14.6517134,10.3111284 C14.5894081,10.1259144 14.4971963,9.95657588 14.3775701,9.80575875 L14.2180685,9.60731518 L14.482243,9.12311284 C14.3401869,9.00669261 14.1831776,8.91143969 14.0161994,8.83735409 L13.7520249,9.32155642 L13.5102804,9.27392996 C13.3283489,9.23688716 13.141433,9.23688716 12.9595016,9.27392996 L12.717757,9.32155642 L12.4535826,8.83735409 C12.2866044,8.91143969 12.1320872,9.00669261 11.9875389,9.12311284 L12.2517134,9.60731518 L12.0922118,9.80575875 C11.9725857,9.95657588 11.8778816,10.1259144 11.8180685,10.3111284 L11.7358255,10.5571984 L11.2099688,10.5571984 C11.1875389,10.7450584 11.1875389,10.9382101 11.2099688,11.12607 L11.7358255,11.12607 L11.8180685,11.3721401 C11.8803738,11.5573541 11.9725857,11.7266926 12.0922118,11.8775097 L12.2517134,12.0759533 L11.9875389,12.5601556 C12.129595,12.6765759 12.2866044,12.7718288 12.4535826,12.8459144 L12.717757,12.3617121 L12.9595016,12.4093385 C13.141433,12.4463813 13.3283489,12.4463813 13.5102804,12.4093385 L13.7520249,12.3617121 Z M13.9813084,10.8217899 C13.9813084,10.353463 13.6249221,9.97509728 13.1838006,9.97509728 C12.7426791,9.97509728 12.3862928,10.353463 12.3862928,10.8217899 C12.3862928,11.2901167 12.7426791,11.6684825 13.1838006,11.6684825 C13.6249221,11.6684825 13.9813084,11.2901167 13.9813084,10.8217899 Z M13.9813084,2.77027237 C13.9813084,2.30194553 13.6249221,1.92357977 13.1838006,1.92357977 C12.7426791,1.92357977 12.3862928,2.30194553 12.3862928,2.77027237 C12.3862928,3.23859922 12.7426791,3.61696498 13.1838006,3.61696498 C13.6249221,3.61696498 13.9813084,3.23595331 13.9813084,2.77027237 Z"></path>
                </g>
            </g>
        </g>
    </g>
</svg>