<?xml version="1.0" encoding="UTF-8"?>
<svg width="317px" height="263px" viewBox="0 0 317 263" version="1.1" xmlns="http://www.w3.org/2000/svg" xmlns:xlink="http://www.w3.org/1999/xlink">
    <!-- Generator: Sketch 51.3 (57544) - http://www.bohemiancoding.com/sketch -->
    <title>Vertical</title>
    <desc>Created with Sketch.</desc>
    <defs>
        <path d="M42.298,0.17 C53.866,19.133 71.108,25.778 78.418,27.765 C38.392,40.008 14.111,18.565 0.484,7.201 C4.572,7.382 24.132,6.471 42.298,0.17 Z" id="path-1"></path>
        <polygon id="path-3" points="0.887644459 0.124 245.978 0.124 245.978 262.94 0.887644459 262.94"></polygon>
    </defs>
    <g id="Vertical" stroke="none" stroke-width="1" fill="none" fill-rule="evenodd">
        <polygon id="Fill-1" fill="#2097C8" points="102.427 80.284 126.92 80.284 126.92 58.017 102.427 58.017"></polygon>
        <polygon id="Fill-2" fill="#2097C8" points="73.48 80.284 97.973 80.284 97.973 58.017 73.48 58.017"></polygon>
        <polygon id="Fill-3" fill="#2097C8" points="131.374 80.284 155.867 80.284 155.867 58.017 131.374 58.017"></polygon>
        <polygon id="Fill-4" fill="#2097C8" points="160.321 80.284 184.814 80.284 184.814 58.017 160.321 58.017"></polygon>
        <polygon id="Fill-5" fill="#2097C8" points="189.268 80.284 213.761 80.284 213.761 58.017 189.268 58.017"></polygon>
        <polygon id="Fill-6" fill="#2097C8" points="102.427 53.565 126.92 53.565 126.92 31.298 102.427 31.298"></polygon>
        <polygon id="Fill-7" fill="#2097C8" points="131.374 53.565 155.867 53.565 155.867 31.298 131.374 31.298"></polygon>
        <polygon id="Fill-8" fill="#2097C8" points="160.321 53.565 184.814 53.565 184.814 31.298 160.321 31.298"></polygon>
        <polygon id="Fill-9" fill="#2097C8" points="160.321 26.844 184.814 26.844 184.814 4.577 160.321 4.577"></polygon>
        <path d="M286.714,64.892 C281.687,61.508 268.48,60.064 258.876,62.65 C258.361,53.084 253.427,45.023 244.404,37.992 L241.063,35.751 L238.836,39.113 C234.461,45.755 232.618,54.604 233.27,62.65 C233.786,67.606 235.509,73.178 238.836,77.221 C236.287,79.201 228.364,83.029 217.683,82.825 L58.476,82.825 C55.645,99.637 60.493,163.523 134.183,163.523 C188.89,163.523 233.841,138.921 254.423,87.308 C261.196,87.419 279.075,88.522 287.824,71.617 C288.036,71.332 290.05,67.134 290.05,67.134 L286.714,64.892" id="Fill-10" fill="#2097C8"></path>
        <g id="Group-13" transform="translate(75.000000, 133.000000)">
            <mask id="mask-2" fill="white">
                <use xlink:href="#path-1"></use>
            </mask>
            <g id="Clip-12"></g>
            <polygon id="Fill-11" fill="#FFFFFE" mask="url(#mask-2)" points="0.48 31.42 78.48 31.42 78.48 0.1 0.48 0.1"></polygon>
        </g>
        <path d="M115.269,129.247 C106.529,134.235 96.398,137.037 85.654,137.037 C80.209,137.037 74.935,136.313 69.917,134.956 C73.096,140.298 73.096,140.298 73.096,140.298 C77.158,141.099 81.356,141.52 85.654,141.52 C97.233,141.52 108.032,138.494 117.44,133.17 C116.661,131.881 115.937,130.592 115.269,129.247" id="Fill-14" fill="#1869A5"></path>
        <path d="M132.213,126.341 C136.488,126.341 139.954,122.851 139.954,118.547 C139.954,114.243 136.488,110.754 132.213,110.754 C127.937,110.754 124.471,114.243 124.471,118.547 C124.471,122.851 127.937,126.341 132.213,126.341" id="Fill-15" fill="#FFFFFE"></path>
        <path d="M133.378,116.358 C133.378,115.644 133.731,115.036 134.247,114.625 C133.642,114.311 132.964,114.117 132.235,114.117 C129.792,114.117 127.811,116.11 127.811,118.57 C127.811,121.029 129.792,123.023 132.235,123.023 C134.678,123.023 136.659,121.029 136.659,118.57 L136.633,118.314 C136.321,118.481 135.982,118.599 135.604,118.599 C134.375,118.599 133.378,117.596 133.378,116.358" id="Fill-16" fill="#435155"></path>
        <path d="M286.063,64.49 C282.624,62.536 276.355,61.326 269.882,61.326 C266.11,61.326 262.268,61.737 258.876,62.65 C258.866,62.448 258.853,62.247 258.838,62.046 C261.894,61.238 265.402,60.878 268.904,60.878 C275.867,60.878 282.799,62.306 286.063,64.49" id="Fill-17" fill="#E6E2DE"></path>
        <path d="M145.259,162.852 C147.902,162.311 150.623,161.62 153.418,160.765 C149.995,159.834 144.392,157.882 138.215,154.121 C189.109,152.882 226.377,126.759 256.167,65.101 L258.21,62.22 C258.417,62.16 258.627,62.102 258.838,62.046 C258.853,62.247 258.866,62.448 258.876,62.65 C262.268,61.737 266.11,61.326 269.882,61.326 C276.355,61.326 282.624,62.536 286.063,64.49 C286.066,64.492 286.069,64.494 286.073,64.496 L289.436,66.776 L287.743,70.361 C280.02,86.011 263.255,87.189 255.405,87.189 C254.766,87.189 254.185,87.181 253.674,87.173 C234.432,134.825 194.452,159.403 145.259,162.852" id="Fill-18" fill="#E6E2DE"></path>
        <path d="M145.259,162.852 C147.902,162.311 150.623,161.62 153.418,160.765 C149.995,159.834 144.392,157.882 138.215,154.121 C189.109,152.882 226.377,126.759 256.167,65.101 L258.21,62.22 C258.417,62.16 258.627,62.102 258.838,62.046 C258.853,62.247 258.866,62.448 258.876,62.65 C262.268,61.737 266.11,61.326 269.882,61.326 C276.355,61.326 282.624,62.536 286.063,64.49 C286.066,64.492 286.069,64.494 286.073,64.496 L289.436,66.776 L287.743,70.361 C280.02,86.011 263.255,87.189 255.405,87.189 C254.766,87.189 254.185,87.181 253.674,87.173 C234.432,134.825 194.452,159.403 145.259,162.852" id="Fill-19" fill="#2A8BB4"></path>
        <path d="M106.799,160.215 C91.637,156.304 80.857,148.991 73.233,140.325 C74.002,140.475 74.776,140.611 75.555,140.733 C82.369,148.472 91.644,155.095 104.164,159.175 C105.026,159.535 105.906,159.883 106.799,160.215" id="Fill-20" fill="#E6E2DE"></path>
        <path d="M104.164,159.175 C91.644,155.095 82.369,148.472 75.555,140.733 C75.785,140.77 76.017,140.805 76.248,140.839 C82.929,146.423 92.051,154.114 104.164,159.175" id="Fill-21" fill="#E6E2DE"></path>
        <path d="M104.164,159.175 C91.644,155.095 82.369,148.472 75.555,140.733 C75.785,140.77 76.017,140.805 76.248,140.839 C82.929,146.423 92.051,154.114 104.164,159.175" id="Fill-22" fill="#2A8BB4"></path>
        <path d="M72.85,139.886 C56.14,120.522 54.902,94.629 55.583,84.637 L58.223,84.637 C57.045,94.963 58.506,117.105 71.287,135.309 C70.829,135.197 70.372,135.079 69.917,134.956 C71.743,138.024 72.52,139.33 72.85,139.886" id="Fill-23" fill="#E6E2DE"></path>
        <path d="M84.41,137.024 C79.897,136.933 75.506,136.343 71.287,135.309 C58.506,117.105 57.045,94.963 58.223,84.637 L64.49,84.637 C66.598,106.141 71.594,124.562 84.41,137.024" id="Fill-24" fill="#E6E2DE"></path>
        <path d="M84.41,137.024 C79.897,136.933 75.506,136.343 71.287,135.309 C58.506,117.105 57.045,94.963 58.223,84.637 L64.49,84.637 C66.598,106.141 71.594,124.562 84.41,137.024" id="Fill-25" fill="#2A8BB4"></path>
        <path d="M132.989,163.276 C123.058,163.276 114.381,162.171 106.799,160.215 C105.906,159.883 105.026,159.535 104.164,159.175 C92.051,154.114 82.929,146.423 76.248,140.839 C79.318,141.287 82.458,141.52 85.654,141.52 C86.973,141.52 88.282,141.481 89.579,141.404 C100.495,149.444 115.971,154.066 137.97,154.127 C138.051,154.125 138.134,154.123 138.215,154.121 C144.392,157.882 149.995,159.834 153.418,160.765 C150.623,161.62 147.902,162.311 145.259,162.852 C141.227,163.135 137.138,163.276 132.989,163.276" id="Fill-26" fill="#E6E2DE"></path>
        <path d="M132.989,163.276 C123.058,163.276 114.381,162.171 106.799,160.215 C105.906,159.883 105.026,159.535 104.164,159.175 C92.051,154.114 82.929,146.423 76.248,140.839 C79.318,141.287 82.458,141.52 85.654,141.52 C86.973,141.52 88.282,141.481 89.579,141.404 C100.495,149.444 115.971,154.066 137.97,154.127 C138.051,154.125 138.134,154.123 138.215,154.121 C144.392,157.882 149.995,159.834 153.418,160.765 C150.623,161.62 147.902,162.311 145.259,162.852 C141.227,163.135 137.138,163.276 132.989,163.276" id="Fill-27" fill="#E3E0DB"></path>
        <path d="M85.654,141.52 C82.458,141.52 79.318,141.287 76.248,140.839 C76.017,140.805 75.785,140.77 75.555,140.733 C74.776,140.611 74.002,140.475 73.233,140.325 C73.104,140.178 72.977,140.033 72.85,139.886 C72.52,139.33 71.743,138.024 69.917,134.956 C70.372,135.079 70.829,135.197 71.287,135.309 C75.506,136.343 79.897,136.933 84.41,137.024 C86.008,138.578 87.729,140.041 89.579,141.404 C88.282,141.481 86.973,141.52 85.654,141.52" id="Fill-28" fill="#E6E2DE"></path>
        <path d="M85.654,141.52 C82.458,141.52 79.318,141.287 76.248,140.839 C76.017,140.805 75.785,140.77 75.555,140.733 C74.776,140.611 74.002,140.475 73.233,140.325 C73.104,140.178 72.977,140.033 72.85,139.886 C72.52,139.33 71.743,138.024 69.917,134.956 C70.372,135.079 70.829,135.197 71.287,135.309 C75.506,136.343 79.897,136.933 84.41,137.024 C86.008,138.578 87.729,140.041 89.579,141.404 C88.282,141.481 86.973,141.52 85.654,141.52" id="Fill-29" fill="#1D6296"></path>
        <polygon id="Fill-30" fill="#1869A5" points="77.933 75.831 80.16 75.831 80.16 62.471 77.933 62.471"></polygon>
        <polygon id="Fill-31" fill="#1869A5" points="84.614 75.831 86.841 75.831 86.841 62.471 84.614 62.471"></polygon>
        <polygon id="Fill-32" fill="#1869A5" points="91.294 75.831 93.521 75.831 93.521 62.471 91.294 62.471"></polygon>
        <polygon id="Fill-33" fill="#1869A5" points="106.88 75.831 109.107 75.831 109.107 62.471 106.88 62.471"></polygon>
        <polygon id="Fill-34" fill="#1869A5" points="113.56 75.831 115.787 75.831 115.787 62.471 113.56 62.471"></polygon>
        <polygon id="Fill-35" fill="#1869A5" points="120.241 75.831 122.467 75.831 122.467 62.471 120.241 62.471"></polygon>
        <polygon id="Fill-36" fill="#1869A5" points="135.827 75.831 138.054 75.831 138.054 62.471 135.827 62.471"></polygon>
        <polygon id="Fill-37" fill="#1869A5" points="142.507 75.831 144.734 75.831 144.734 62.471 142.507 62.471"></polygon>
        <polygon id="Fill-38" fill="#1869A5" points="149.187 75.831 151.414 75.831 151.414 62.471 149.187 62.471"></polygon>
        <polygon id="Fill-39" fill="#1869A5" points="164.774 75.831 167.001 75.831 167.001 62.471 164.774 62.471"></polygon>
        <polygon id="Fill-40" fill="#1869A5" points="171.454 75.831 173.681 75.831 173.681 62.471 171.454 62.471"></polygon>
        <polygon id="Fill-41" fill="#1869A5" points="178.134 75.831 180.361 75.831 180.361 62.471 178.134 62.471"></polygon>
        <polygon id="Fill-42" fill="#1869A5" points="193.721 75.831 195.948 75.831 195.948 62.471 193.721 62.471"></polygon>
        <polygon id="Fill-43" fill="#1869A5" points="200.401 75.831 202.627 75.831 202.627 62.471 200.401 62.471"></polygon>
        <polygon id="Fill-44" fill="#1869A5" points="207.081 75.831 209.308 75.831 209.308 62.471 207.081 62.471"></polygon>
        <polygon id="Fill-45" fill="#1869A5" points="113.56 49.111 115.787 49.111 115.787 35.751 113.56 35.751"></polygon>
        <polygon id="Fill-46" fill="#1869A5" points="120.241 49.111 122.467 49.111 122.467 35.751 120.241 35.751"></polygon>
        <polygon id="Fill-47" fill="#1869A5" points="135.827 49.111 138.054 49.111 138.054 35.751 135.827 35.751"></polygon>
        <polygon id="Fill-48" fill="#1869A5" points="142.507 49.111 144.734 49.111 144.734 35.751 142.507 35.751"></polygon>
        <polygon id="Fill-49" fill="#1869A5" points="149.187 49.111 151.414 49.111 151.414 35.751 149.187 35.751"></polygon>
        <polygon id="Fill-50" fill="#1869A5" points="164.774 49.111 167.001 49.111 167.001 35.751 164.774 35.751"></polygon>
        <polygon id="Fill-51" fill="#1869A5" points="171.454 49.111 173.681 49.111 173.681 35.751 171.454 35.751"></polygon>
        <polygon id="Fill-52" fill="#1869A5" points="178.134 49.111 180.361 49.111 180.361 35.751 178.134 35.751"></polygon>
        <polygon id="Fill-53" fill="#1869A5" points="171.454 22.391 173.681 22.391 173.681 9.031 171.454 9.031"></polygon>
        <polygon id="Fill-54" fill="#1869A5" points="164.774 22.391 167.001 22.391 167.001 9.031 164.774 9.031"></polygon>
        <polygon id="Fill-55" fill="#1869A5" points="178.134 22.391 180.361 22.391 180.361 9.031 178.134 9.031"></polygon>
        <g id="Group-59" transform="translate(0.000000, 35.000000)" fill="#1869A5">
            <polygon id="Fill-56" points="106.88 14.111 109.107 14.111 109.107 0.751 106.88 0.751"></polygon>
            <path d="M42.265,207.565 C41.387,209.591 40.191,211.368 38.677,212.897 C37.163,214.429 35.384,215.643 33.345,216.534 C31.303,217.429 29.118,217.874 26.789,217.874 C24.429,217.874 22.229,217.429 20.187,216.534 C18.145,215.643 16.375,214.438 14.879,212.922 C13.378,211.408 12.191,209.631 11.314,207.589 C10.436,205.549 9.998,203.378 9.998,201.082 C9.998,198.786 10.436,196.618 11.314,194.576 C12.191,192.536 13.378,190.758 14.879,189.241 C16.375,187.729 18.145,186.525 20.187,185.63 C22.229,184.739 24.429,184.291 26.789,184.291 C29.118,184.291 31.303,184.739 33.345,185.63 C35.384,186.525 37.163,187.736 38.677,189.265 C40.191,190.798 41.387,192.575 42.265,194.601 C43.142,196.627 43.58,198.786 43.58,201.082 C43.58,203.378 43.142,205.54 42.265,207.565 Z M48.557,151.33 C47.121,151.33 45.932,151.802 44.992,152.742 C44.05,153.683 43.58,154.87 43.58,156.304 L43.58,180.176 C38.733,176.253 33.135,174.293 26.789,174.293 C19.39,174.293 13.075,176.908 7.845,182.138 C2.614,187.371 0,193.683 0,201.082 C0,208.482 2.614,214.796 7.845,220.027 C13.075,225.257 19.39,227.871 26.789,227.871 C34.124,227.871 40.439,225.257 45.734,220.027 C50.964,214.859 53.578,208.544 53.578,201.082 L53.578,156.304 C53.578,154.87 53.093,153.683 52.12,152.742 C51.147,151.802 49.96,151.33 48.557,151.33 Z" id="Fill-58"></path>
        </g>
        <path d="M100.659,242.565 C99.782,244.591 98.584,246.368 97.07,247.897 C95.556,249.429 93.776,250.643 91.737,251.534 C89.695,252.429 87.511,252.874 85.182,252.874 C82.821,252.874 80.621,252.429 78.581,251.534 C76.539,250.643 74.77,249.438 73.271,247.922 C71.77,246.408 70.583,244.631 69.706,242.589 C68.829,240.549 68.39,238.378 68.39,236.082 C68.39,233.786 68.829,231.618 69.706,229.576 C70.583,227.536 71.77,225.758 73.271,224.241 C74.77,222.729 76.539,221.525 78.581,220.63 C80.621,219.739 82.821,219.291 85.182,219.291 C87.511,219.291 89.695,219.739 91.737,220.63 C93.776,221.525 95.556,222.736 97.07,224.265 C98.584,225.798 99.782,227.575 100.659,229.601 C101.534,231.627 101.973,233.786 101.973,236.082 C101.973,238.378 101.534,240.54 100.659,242.565 Z M104.126,217.138 C98.831,211.908 92.516,209.293 85.182,209.293 C77.782,209.293 71.467,211.908 66.239,217.138 C61.006,222.371 58.392,228.683 58.392,236.082 C58.392,243.482 61.006,249.796 66.239,255.027 C71.467,260.257 77.782,262.871 85.182,262.871 C92.516,262.871 98.831,260.257 104.126,255.027 C109.356,249.859 111.973,243.544 111.973,236.082 C111.939,232.384 111.278,228.955 109.987,225.798 C108.695,222.64 106.743,219.754 104.126,217.138 Z" id="Fill-60" fill="#1869A5"></path>
        <path d="M213.734,214.268 C213.734,213.597 213.601,212.961 213.329,212.355 C213.057,211.749 212.699,211.215 212.251,210.752 C211.804,210.291 211.278,209.932 210.672,209.674 C210.067,209.42 209.412,209.293 208.711,209.293 C207.722,209.293 206.829,209.55 206.032,210.057 L177.426,228.668 L177.426,191.353 C177.426,189.951 176.938,188.764 175.965,187.788 C174.995,186.817 173.821,186.33 172.449,186.33 C171.044,186.33 169.857,186.817 168.887,187.788 C167.913,188.764 167.426,189.951 167.426,191.353 L167.426,257.848 C167.426,259.22 167.913,260.403 168.887,261.389 C169.857,262.377 171.044,262.871 172.449,262.871 C173.821,262.871 174.995,262.377 175.965,261.389 C176.938,260.403 177.426,259.22 177.426,257.848 L177.426,240.578 L183.262,236.753 L205.364,261.58 C206.255,262.442 207.372,262.871 208.711,262.871 C209.412,262.871 210.067,262.744 210.672,262.489 C211.278,262.235 211.804,261.876 212.251,261.413 C212.699,260.952 213.057,260.415 213.329,259.81 C213.601,259.206 213.734,258.566 213.734,257.898 C213.734,256.59 213.271,255.426 212.347,254.404 L191.777,231.251 L211.821,218.238 C213.095,217.376 213.734,216.056 213.734,214.268" id="Fill-61" fill="#1869A5"></path>
        <path d="M131.568,224.195 C133.097,222.681 134.883,221.485 136.925,220.607 C138.967,219.73 141.151,219.291 143.48,219.291 C145.584,219.291 147.528,219.643 149.316,220.342 C151.1,221.046 152.808,222.083 154.434,223.453 C155.391,224.219 156.475,224.602 157.686,224.602 C159.122,224.602 160.309,224.123 161.251,223.166 C162.191,222.208 162.663,221.013 162.663,219.578 C162.663,218.08 162.089,216.82 160.94,215.798 C156.028,211.462 150.209,209.293 143.48,209.293 C136.079,209.293 129.764,211.908 124.536,217.138 C119.305,222.371 116.689,228.683 116.689,236.082 C116.689,243.482 119.305,249.796 124.536,255.027 C129.764,260.257 136.079,262.871 143.48,262.871 C150.176,262.871 155.997,260.703 160.94,256.366 C161.993,255.312 162.518,254.087 162.518,252.683 C162.518,251.246 162.046,250.06 161.109,249.118 C160.167,248.178 158.978,247.705 157.544,247.705 C156.332,247.74 155.279,248.089 154.387,248.759 C152.792,250.13 151.1,251.16 149.316,251.845 C147.528,252.531 145.584,252.874 143.48,252.874 C141.151,252.874 138.967,252.435 136.925,251.558 C134.883,250.681 133.097,249.485 131.568,247.971 C130.036,246.456 128.831,244.677 127.956,242.636 C127.079,240.596 126.64,238.411 126.64,236.082 C126.64,233.756 127.079,231.569 127.956,229.527 C128.831,227.488 130.036,225.711 131.568,224.195" id="Fill-62" fill="#1869A5"></path>
        <path d="M315.327,212.64 C314.433,211.781 313.309,211.104 311.956,210.607 C310.599,210.115 309.116,209.77 307.506,209.578 C305.894,209.387 304.387,209.293 302.984,209.293 C299.795,209.293 296.796,209.804 293.991,210.823 C291.185,211.845 288.586,213.31 286.193,215.225 L286.193,214.268 C286.193,212.898 285.707,211.725 284.734,210.752 C283.763,209.779 282.587,209.293 281.218,209.293 C279.813,209.293 278.626,209.779 277.653,210.752 C276.682,211.725 276.195,212.898 276.195,214.268 L276.195,257.898 C276.195,259.269 276.682,260.44 277.653,261.413 C278.626,262.386 279.813,262.871 281.218,262.871 C282.587,262.871 283.763,262.386 284.734,261.413 C285.707,260.44 286.193,259.269 286.193,257.898 L286.193,236.082 C286.193,233.756 286.633,231.569 287.508,229.527 C288.386,227.488 289.581,225.711 291.096,224.195 C292.612,222.681 294.389,221.485 296.431,220.607 C298.47,219.73 300.655,219.291 302.984,219.291 C305.344,219.291 307.529,219.69 309.539,220.487 C310.334,220.839 311.038,221.013 311.643,221.013 C312.342,221.013 312.997,220.888 313.605,220.63 C314.208,220.376 314.737,220.017 315.184,219.554 C315.629,219.093 315.988,218.559 316.259,217.951 C316.531,217.347 316.666,216.693 316.666,215.989 C316.666,214.619 316.219,213.502 315.327,212.64" id="Fill-63" fill="#1869A5"></path>
        <g id="Group-68" transform="translate(54.000000, 0.000000)">
            <mask id="mask-4" fill="white">
                <use xlink:href="#path-3"></use>
            </mask>
            <g id="Clip-65"></g>
            <path d="M174.931,231.106 C175.439,229.353 176.223,227.753 177.274,226.299 C178.327,224.849 179.57,223.604 181.005,222.567 C182.442,221.534 184.021,220.725 185.742,220.151 C187.463,219.578 189.233,219.291 191.052,219.291 C192.87,219.291 194.63,219.578 196.336,220.151 C198.042,220.725 199.607,221.534 201.024,222.567 C202.444,223.604 203.689,224.849 204.755,226.299 C205.827,227.753 206.63,229.353 207.173,231.106 L174.931,231.106 Z M209.997,217.138 C204.7,211.908 198.385,209.293 191.052,209.293 C183.651,209.293 177.336,211.908 172.108,217.138 C166.875,222.371 164.261,228.683 164.261,236.082 C164.261,243.482 166.875,249.796 172.108,255.027 C177.336,260.257 183.651,262.871 191.052,262.871 C197.779,262.871 203.616,260.703 208.561,256.366 C209.518,255.379 209.997,254.183 209.997,252.779 C209.997,251.342 209.525,250.156 208.582,249.213 C207.643,248.274 206.456,247.802 205.02,247.802 C203.778,247.835 202.675,248.251 201.72,249.046 C200.219,250.323 198.592,251.28 196.839,251.916 C195.082,252.556 193.157,252.874 191.052,252.874 C189.2,252.874 187.423,252.586 185.715,252.012 C184.011,251.438 182.447,250.634 181.028,249.596 C179.61,248.561 178.373,247.319 177.323,245.865 C176.269,244.414 175.47,242.812 174.931,241.057 L212.818,241.057 C214.218,241.057 215.408,240.587 216.38,239.645 C217.354,238.705 217.841,237.517 217.841,236.082 C217.841,232.384 217.185,228.948 215.88,225.773 C214.571,222.6 212.609,219.721 209.997,217.138 Z" id="Fill-64" fill="#1869A5" mask="url(#mask-4)"></path>
            <path d="M216.754,82.785 C211.88,84.498 207.463,84.882 200.841,84.744 C200.775,84.743 200.361,84.735 199.683,84.721 L198.151,84.697 L197.58,86.128 C178.1,134.976 135.563,160.936 79.406,160.936 C47.304,160.936 26.356,148.78 14.799,128.037 C10.34,120.033 7.504,111.051 6.175,101.859 C5.253,95.482 5.128,89.295 5.637,84.721 L15.027,84.721 L15.027,84.738 L164.214,84.738 L164.214,84.695 C173.035,84.595 181.281,81.866 185.42,78.65 L187.246,77.232 L185.774,75.445 C183.016,72.095 181.24,67.187 180.707,62.072 C180.076,54.267 181.967,46.001 185.915,40.007 L186.904,38.514 L188.326,39.468 C196.969,46.222 201.407,53.723 201.876,62.427 L202.026,65.184 L204.675,64.47 C213.346,62.136 226.041,63.276 230.7,66.41 L232.421,67.567 C232.341,67.73 232.263,67.891 232.154,68.114 C231.878,68.676 231.644,69.149 231.464,69.505 C231.367,69.698 231.288,69.851 231.072,70.236 C227.767,76.622 222.912,80.62 216.754,82.785 Z M19.48,80.238 L43.973,80.238 L43.973,58.017 L19.48,58.017 L19.48,80.238 Z M48.427,80.238 L72.92,80.238 L72.92,58.017 L48.427,58.017 L48.427,80.238 Z M48.427,53.565 L72.92,53.565 L72.92,31.298 L48.427,31.298 L48.427,53.565 Z M77.374,58.017 L101.867,58.017 L101.867,80.239 L77.374,80.238 L77.374,58.017 Z M77.374,53.565 L101.867,53.565 L101.867,31.298 L77.374,31.298 L77.374,53.565 Z M106.321,80.238 L130.814,80.238 L130.814,58.017 L106.321,58.017 L106.321,80.238 Z M106.321,53.565 L130.814,53.565 L130.814,31.298 L106.321,31.298 L106.321,53.565 Z M106.321,26.844 L130.814,26.844 L130.814,4.577 L106.321,4.577 L106.321,26.844 Z M135.268,80.238 L159.761,80.238 L159.761,58.017 L135.268,58.017 L135.268,80.238 Z M234.981,72.387 C235.196,72.03 235.511,71.397 236.182,70.028 C236.424,69.532 236.682,69.001 236.938,68.471 C237.028,68.285 237.111,68.113 237.279,67.763 L238.122,66.007 L233.173,62.682 C227.825,59.082 215.629,57.726 206.074,59.556 C204.841,50.549 199.79,42.732 190.927,35.826 L185.669,32.297 L182.207,37.525 C177.68,44.398 175.559,53.666 176.274,62.488 C176.8,67.546 178.364,72.427 180.872,76.291 C177.084,78.403 170.863,80.132 164.214,80.22 L164.214,53.564 L135.268,53.564 L135.268,0.124 L101.867,0.124 L101.867,26.844 L43.974,26.844 L43.974,53.564 L15.027,53.564 L15.027,80.238 L1.818,80.238 L1.504,82.105 C0.637,87.254 0.649,94.767 1.768,102.504 C3.172,112.214 6.173,121.718 10.915,130.23 C23.265,152.397 45.704,165.42 79.406,165.42 C136.752,165.42 180.68,138.943 201.131,89.234 C208.04,89.358 212.816,88.918 218.223,87.017 C225.386,84.499 231.13,79.782 234.981,72.387 Z" id="Fill-66" fill="#1869A5" mask="url(#mask-4)"></path>
            <path d="M242.62,259.991 L242.932,259.991 C243.298,259.991 243.594,259.869 243.594,259.572 C243.594,259.311 243.403,259.137 242.985,259.137 C242.811,259.137 242.689,259.154 242.62,259.171 L242.62,259.991 Z M242.602,261.609 L241.94,261.609 L241.94,258.754 C242.202,258.702 242.567,258.666 243.038,258.666 C243.578,258.666 243.82,258.754 244.03,258.876 C244.185,258.996 244.307,259.223 244.307,259.502 C244.307,259.816 244.063,260.06 243.716,260.163 L243.716,260.199 C243.994,260.303 244.151,260.512 244.238,260.894 C244.326,261.329 244.376,261.503 244.448,261.609 L243.733,261.609 C243.647,261.503 243.594,261.243 243.506,260.911 C243.456,260.598 243.281,260.459 242.915,260.459 L242.602,260.459 L242.602,261.609 Z M240.843,260.111 C240.843,261.382 241.785,262.391 243.072,262.391 C244.326,262.391 245.247,261.382 245.247,260.129 C245.247,258.858 244.326,257.831 243.054,257.831 C241.785,257.831 240.843,258.858 240.843,260.111 Z M245.978,260.111 C245.978,261.731 244.708,263 243.054,263 C241.418,263 240.114,261.731 240.114,260.111 C240.114,258.528 241.418,257.256 243.054,257.256 C244.708,257.256 245.978,258.528 245.978,260.111 Z" id="Fill-67" fill="#1869A5" mask="url(#mask-4)"></path>
        </g>
    </g>
</svg>