<svg width="46" height="35" xmlns="http://www.w3.org/2000/svg"><g fill="#236192" fill-rule="evenodd"><path d="M20.727 32.076a.829.829 0 0 1 0 1.66.829.829 0 1 1 0-1.66M19.242 1.381a.829.829 0 1 1-.004 1.657.829.829 0 0 1 .004-1.657m1.485 2.103H35.4l7.837 7.858v12.434l-7.837 7.858H22.214a1.948 1.948 0 0 0-1.487-.687 1.957 1.957 0 0 0-1.954 1.96c0 1.081.875 1.96 1.954 1.96.595 0 1.127-.267 1.486-.687H36.45l9.324-9.35V10.289L36.45.938H20.727A1.948 1.948 0 0 0 19.242.25c-1.08 0-1.955.878-1.955 1.96 0 1.082.876 1.96 1.955 1.96.594 0 1.127-.267 1.485-.687"/><path d="M14.064 26.984a.829.829 0 0 1 0 1.66.829.829 0 1 1 0-1.66zm.155-20.376c.458 0 .828.372.828.83a.829.829 0 1 1-1.655 0c0-.458.37-.83.827-.83zm20.129-.578H15.644v.068a1.946 1.946 0 0 0-1.425-.62c-1.079 0-1.954.878-1.954 1.96a1.952 1.952 0 1 0 3.546 1.138h17.484l4.863 4.875v8.215l-4.862 4.875H15.549a1.948 1.948 0 0 0-1.485-.687 1.958 1.958 0 0 0-1.954 1.96c0 1.082.875 1.96 1.954 1.96.595 0 1.127-.266 1.486-.687H34.348l6.35-6.366V12.397l-6.35-6.367z"/><path d="M2.497 16.728a.829.829 0 0 0 0 1.66.829.829 0 1 0 0-1.66zm4.859 5.01a.829.829 0 0 0-.828.83.829.829 0 1 0 1.656 0c0-.458-.37-.83-.828-.83zm.475-10.173a.828.828 0 0 0-.828.83.828.828 0 1 0 1.655 0c0-.459-.37-.83-.827-.83zm21.057 5.163a.829.829 0 0 0 0 1.66.829.829 0 1 0 0-1.66zm2.54 7.266H8.695c-.35.331-.821.534-1.34.534a1.957 1.957 0 0 1-1.955-1.96c0-1.081.876-1.959 1.955-1.959.664 0 1.25.332 1.603.84h6.242l-2.61-2.618H3.982c-.358.42-.89.687-1.485.687a1.958 1.958 0 0 1-1.955-1.96c0-1.081.876-1.96 1.955-1.96.594 0 1.127.267 1.485.688h9.66l5.15 5.162h12.401l1.887-1.891V15.56l-1.888-1.892H19.683l2.611 2.618h5.108c.359-.42.892-.687 1.486-.687 1.079 0 1.955.878 1.955 1.96 0 1.081-.876 1.96-1.955 1.96a1.948 1.948 0 0 1-1.486-.688h-6.16l-5.15-5.163H9.316c-.358.42-.89.687-1.485.687a1.958 1.958 0 0 1-1.955-1.96c0-1.082.876-1.96 1.955-1.96.595 0 1.127.267 1.485.687h22.928l3.374 3.384V20.611l-3.373 3.383h-.818z"/></g></svg>