<svg width="16" height="14" xmlns="http://www.w3.org/2000/svg"><path d="M13.464 5.37l-.063-.106a1.893 1.893 0 0 1-.305 0l-.062.11a.576.576 0 0 1-.688.276 2.211 2.211 0 0 1-.857-.495.697.697 0 0 1-.135-.831l.062-.118a2.404 2.404 0 0 1-.152-.29h-.228c-.29 0-.535-.223-.59-.535a2.76 2.76 0 0 1 .003-1.052c.052-.31.302-.533.59-.533h.225c.045-.101.095-.197.152-.29l-.065-.123a.701.701 0 0 1 .13-.828c.265-.249.493-.391.838-.52.27-.1.567.02.712.29l.065.12c.103-.008.203-.008.305 0l.065-.12c.145-.27.442-.39.715-.287.332.123.557.263.837.522.22.205.273.552.128.826l-.065.12c.057.093.107.189.152.29h.128c.29 0 .535.224.59.535a2.76 2.76 0 0 1-.003 1.053c-.052.309-.302.533-.59.533h-.125a2.404 2.404 0 0 1-.152.29l.062.117a.697.697 0 0 1-.137.834c-.268.24-.498.366-.85.489a.578.578 0 0 1-.692-.276zm.304-.942l.265.5c.168-.077.323-.175.468-.295l-.265-.5.16-.205c.12-.156.215-.331.275-.522l.082-.255h.528a2.567 2.567 0 0 0 0-.587h-.528l-.082-.254a1.734 1.734 0 0 0-.275-.522l-.16-.205.262-.503c-.142-.12-.3-.219-.467-.296l-.265.5-.242-.049a1.344 1.344 0 0 0-.553 0l-.242.05-.265-.5a1.98 1.98 0 0 0-.465.295l.265.5-.16.205a1.68 1.68 0 0 0-.275.522l-.083.254h-.527a2.567 2.567 0 0 0 0 .588h.527l.083.254c.062.191.155.366.275.522l.16.205-.265.503c.142.12.3.218.467.295l.265-.5.243.049c.182.038.37.038.552 0l.242-.05zM3.633 12.422v-.863a4.283 4.283 0 0 1-.91-.577l-.688.435a.564.564 0 0 1-.742-.126C.688 10.572.33 9.938.028 8.883a.686.686 0 0 1 .27-.765l.682-.435a5.21 5.21 0 0 1 0-1.15L.298 6.1a.684.684 0 0 1-.27-.766c.303-1.05.655-1.683 1.265-2.408.19-.227.5-.279.742-.125l.685.434c.283-.232.588-.424.91-.577v-.863c0-.31.195-.574.47-.64.867-.213 1.55-.238 2.542 0 .275.066.473.334.473.64v.863c.322.15.627.345.91.574l.684-.431a.568.568 0 0 1 .745.125c.673.81 1.037 1.528 1.302 2.42a.682.682 0 0 1-.255.756l-.624.432a5.21 5.21 0 0 1 0 1.15l.702.48a.684.684 0 0 1 .27.696c-.173.856-.825 1.766-1.397 2.438a.563.563 0 0 1-.74.12l-.688-.434a4.394 4.394 0 0 1-.91.577v.863c0 .306-.194.574-.47.64-.937.227-1.622.224-2.546 0-.27-.069-.465-.336-.465-.643zm.8-.169c.62.137 1.262.137 1.882 0v-1.304l.267-.104a3.55 3.55 0 0 0 1.147-.724l.215-.202 1.035.653c.42-.522.85-1.129 1.053-1.782l-1.035-.653.052-.304c.08-.48.08-.97 0-1.45l-.052-.304 1.035-.654c-.203-.653-.633-1.262-1.053-1.782l-1.035.654-.215-.203a3.479 3.479 0 0 0-1.147-.724l-.267-.104v-1.3a4.372 4.372 0 0 0-1.883 0v1.303l-.267.104a3.55 3.55 0 0 0-1.147.724l-.215.202-1.035-.653a5.39 5.39 0 0 0-.942 1.782l1.034.653-.052.304c-.08.48-.08.97 0 1.451l.052.304-1.034.653c.202.653.522 1.263.942 1.782l1.035-.653.215.202c.34.32.725.563 1.147.724l.267.104v1.301zm.96-2.878c-1.143 0-2.073-1.017-2.073-2.266s.93-2.266 2.072-2.266c1.143 0 2.072 1.017 2.072 2.266 0 1.25-.93 2.266-2.072 2.266zm0-3.657c-.7 0-1.273.623-1.273 1.391S4.69 8.5 5.392 8.5c.7 0 1.273-.623 1.273-1.39 0-.769-.57-1.392-1.273-1.392zm8.07 7.973l-.062-.107a1.893 1.893 0 0 1-.305 0l-.062.11a.576.576 0 0 1-.688.275 2.211 2.211 0 0 1-.857-.494.697.697 0 0 1-.135-.831l.062-.118a2.404 2.404 0 0 1-.152-.29h-.228c-.29 0-.535-.224-.59-.535a2.76 2.76 0 0 1 .003-1.052c.052-.31.302-.533.59-.533h.225c.045-.101.095-.197.152-.29l-.065-.123a.701.701 0 0 1 .13-.828c.265-.249.493-.391.838-.52.27-.1.567.02.712.29l.065.12c.103-.008.203-.008.305 0l.065-.12c.145-.27.442-.39.715-.287.332.123.557.263.837.522.22.205.273.552.128.826l-.065.12c.057.093.107.189.152.29h.128c.29 0 .535.224.59.535a2.76 2.76 0 0 1-.003 1.053c-.052.308-.302.533-.59.533h-.125a2.404 2.404 0 0 1-.152.29l.062.117a.697.697 0 0 1-.137.833c-.268.241-.498.367-.85.49a.584.584 0 0 1-.692-.276zm.305-.946l.265.5c.168-.076.323-.175.468-.295l-.265-.5.16-.205c.12-.156.215-.33.275-.522l.082-.254h.528a2.567 2.567 0 0 0 0-.588h-.528l-.082-.254a1.734 1.734 0 0 0-.275-.522l-.16-.205.265-.5c-.143-.12-.3-.22-.468-.296l-.265.5-.242-.049a1.344 1.344 0 0 0-.552 0l-.243.05-.265-.5A2.089 2.089 0 0 0 12 9.4l.265.5-.16.205a1.68 1.68 0 0 0-.275.522l-.083.254h-.527a2.567 2.567 0 0 0 0 .588h.527l.083.254c.062.191.155.366.275.522l.16.205-.265.5c.142.12.3.219.467.295l.265-.5.243.05c.182.037.37.037.552 0l.242-.05zm.23-1.59c0-.485-.357-.875-.8-.875-.442 0-.8.39-.8.874s.358.875.8.875c.443 0 .8-.391.8-.875zm0-8.318c0-.484-.357-.875-.8-.875-.442 0-.8.391-.8.875s.358.875.8.875c.443 0 .8-.394.8-.875z" fill="#979797" fill-rule="nonzero"/></svg>