<svg width="74" height="75" xmlns="http://www.w3.org/2000/svg"><g fill="#F49700" fill-rule="nonzero"><path d="M55.962 51.662c-1.1.326-1.976.448-3.127.448-9.422 0-23.257-33.11-23.257-44.13 0-4.057.954-5.41 2.302-6.573C20.348 2.762 6.51 7.016 2.085 12.426 1.13 13.782.55 15.906.55 18.613c0 17.205 18.26 56.241 31.141 56.241 5.959 0 16.004-9.851 24.272-23.192M49.947.252c11.915 0 23.84 1.932 23.84 8.696 0 13.723-8.655 30.352-13.071 30.352-7.882 0-17.686-22.04-17.686-33.06 0-5.025 1.922-5.988 6.917-5.988"/></g></svg>