<?xml version="1.0" encoding="UTF-8"?>
<svg width="20px" height="20px" viewBox="0 0 20 20" version="1.1" xmlns="http://www.w3.org/2000/svg" xmlns:xlink="http://www.w3.org/1999/xlink">
    <!-- Generator: Sketch 51.2 (57519) - http://www.bohemiancoding.com/sketch -->
    <title>comment-alt-dots</title>
    <desc>Created with Sketch.</desc>
    <defs></defs>
    <g id="Symbols" stroke="none" stroke-width="1" fill="none" fill-rule="evenodd">
        <g id="Add" transform="translate(-15.000000, -15.000000)" fill="#236192">
            <g id="plus-circle" transform="translate(10.000000, 10.000000)">
                <g id="Group" transform="translate(5.000000, 5.000000)">
                    <g fill-rule="nonzero" id="Shape">
                        <path d="M10,0.3125 C4.6484375,0.3125 0.3125,4.6484375 0.3125,10 C0.3125,15.3515625 4.6484375,19.6875 10,19.6875 C15.3515625,19.6875 19.6875,15.3515625 19.6875,10 C19.6875,4.6484375 15.3515625,0.3125 10,0.3125 Z M15.625,11.09375 C15.625,11.3515625 15.4140625,11.5625 15.15625,11.5625 L11.5625,11.5625 L11.5625,15.15625 C11.5625,15.4140625 11.3515625,15.625 11.09375,15.625 L8.90625,15.625 C8.6484375,15.625 8.4375,15.4140625 8.4375,15.15625 L8.4375,11.5625 L4.84375,11.5625 C4.5859375,11.5625 4.375,11.3515625 4.375,11.09375 L4.375,8.90625 C4.375,8.6484375 4.5859375,8.4375 4.84375,8.4375 L8.4375,8.4375 L8.4375,4.84375 C8.4375,4.5859375 8.6484375,4.375 8.90625,4.375 L11.09375,4.375 C11.3515625,4.375 11.5625,4.5859375 11.5625,4.84375 L11.5625,8.4375 L15.15625,8.4375 C15.4140625,8.4375 15.625,8.6484375 15.625,8.90625 L15.625,11.09375 Z"></path>
                    </g>
                </g>
            </g>
        </g>
    </g>
</svg>