<?xml version="1.0" encoding="UTF-8"?>
<svg width="286px" height="220px" viewBox="0 0 286 220" version="1.1" 
    xmlns="http://www.w3.org/2000/svg" 
    xmlns:xlink="http://www.w3.org/1999/xlink">
    <!-- Generator: Sketch 51.3 (57544) - http://www.bohemiancoding.com/sketch -->
    <title>Icon</title>
    <desc>Created with Sketch.</desc>
    <defs></defs>
    <g id="Page-1" stroke="none" stroke-width="1" fill="none" fill-rule="evenodd">
        <g id="Projects-Copy" transform="translate(-562.000000, -436.000000)" fill="#FFD603">
            <g id="DDEV" transform="translate(562.000000, 436.000000)">
                <g id="DDEV-Check">
                    <g id="Icon">
                        <path d="M127.673342,201.539037 C130.552438,201.539037 132.887856,203.887893 132.887856,206.779321 C132.887856,209.674183 130.552438,212.019605 127.673342,212.019605 C124.790826,212.019605 122.455408,209.674183 122.455408,206.779321 C122.455408,203.887893 124.790826,201.539037 127.673342,201.539037 M118.307732,7.717209 C121.186828,7.717209 123.522246,10.066065 123.522246,12.957493 C123.522246,15.852355 121.186828,18.197777 118.307732,18.197777 C115.425216,18.197777 113.086378,15.852355 113.086378,12.957493 C113.086378,10.066065 115.425216,7.717209 118.307732,7.717209 M127.673342,20.996487 L151.831076,20.996487 L220.166863,20.996487 L269.573106,70.617787 L269.573106,149.125895 L220.170282,198.743761 L161.066751,198.743761 L137.038952,198.743761 C134.778759,196.089279 131.420954,194.406619 127.669922,194.406619 C120.868828,194.406619 115.349991,199.949095 115.349991,206.779321 C115.349991,213.612981 120.868828,219.155457 127.669922,219.155457 C131.420954,219.155457 134.77534,217.472797 137.035533,214.821749 L151.831076,214.821749 L225.15228,214.821749 L226.800409,214.821749 L285.582521,155.787855 L285.582521,152.645745 L285.582521,63.959261 L226.79357,4.921933 L224.126474,4.921933 L151.831076,4.921933 L127.673342,4.921933 C125.413149,2.267451 122.051924,0.584791 118.307732,0.584791 C111.503218,0.584791 105.98438,6.127267 105.98438,12.957493 C105.98438,19.791153 111.503218,25.333629 118.307732,25.333629 C122.051924,25.333629 125.413149,23.650969 127.673342,20.996487" id="Fill-27"></path>
                        <path d="M85.6662381,169.385465 C88.5487534,169.385465 90.8841721,171.734321 90.8841721,174.625749 C90.8841721,177.520611 88.5487534,179.866033 85.6662381,179.866033 C82.7837229,179.866033 80.4483042,177.520611 80.4483042,174.625749 C80.4483042,171.734321 82.7837229,169.385465 85.6662381,169.385465 Z M86.6441733,40.7272208 C89.5266886,40.7272208 91.8621072,43.0726428 91.8621072,45.9675048 C91.8621072,48.8623668 89.5266886,51.2077888 86.6441733,51.2077888 C83.761658,51.2077888 81.4262394,48.8623668 81.4262394,45.9675048 C81.4262394,43.0726428 83.761658,40.7272208 86.6441733,40.7272208 Z M213.539813,37.0734448 L95.6268158,37.0734448 L95.6268158,37.5026948 C93.3803003,35.0988948 90.1866239,33.5948028 86.6441733,33.5948028 C79.8396592,33.5948028 74.3242415,39.1338448 74.3242415,45.9675048 C74.3242415,52.8011648 79.8396592,58.3436408 86.6441733,58.3436408 C90.7815914,58.3436408 94.4403,56.2935428 96.6799768,53.1514328 L206.906267,53.1514328 L237.560774,83.9338088 L237.560774,135.804379 L206.909686,166.586755 L95.0284289,166.586755 C92.7716554,163.935707 89.4138499,162.249613 85.6628188,162.249613 C78.861724,162.249613 73.342887,167.792089 73.342887,174.625749 C73.342887,181.459409 78.861724,186.998451 85.6628188,186.998451 C89.4138499,186.998451 92.7716554,185.319225 95.0318482,182.664743 L213.536394,182.664743 L213.539813,182.664743 L213.543232,182.664743 L213.543232,182.661309 L253.570188,142.466339 L253.570188,137.463001 L253.570188,82.3266968 L253.570188,77.2787168 L213.539813,37.0768788 L213.539813,37.0734448 Z" id="Fill-29"></path>
                        <path d="M12.7409953,104.627436 C9.85848004,104.627436 7.52306138,106.976292 7.52306138,109.86772 C7.52306138,112.762582 9.85848004,115.108004 12.7409953,115.108004 C15.6235106,115.108004 17.9589292,112.762582 17.9589292,109.86772 C17.9589292,106.976292 15.6235106,104.627436 12.7409953,104.627436 Z M43.3749862,136.264878 C40.4924709,136.264878 38.1570523,138.6103 38.1570523,141.505162 C38.1570523,144.400024 40.4924709,146.745446 43.3749862,146.745446 C46.2575015,146.745446 48.5929201,144.400024 48.5929201,141.505162 C48.5929201,138.6103 46.2575015,136.264878 43.3749862,136.264878 Z M46.3669208,72.0250402 C43.4844055,72.0250402 41.1524062,74.3704622 41.1524062,77.2653242 C41.1524062,80.1601862 43.4844055,82.5056082 46.3669208,82.5056082 C49.2494361,82.5056082 51.5848547,80.1601862 51.5848547,77.2653242 C51.5848547,74.3704622 49.2494361,72.0250402 46.3669208,72.0250402 Z M179.119914,104.627436 C176.237398,104.627436 173.90198,106.976292 173.90198,109.86772 C173.90198,112.762582 176.237398,115.108004 179.119914,115.108004 C182.002429,115.108004 184.337847,112.762582 184.337847,109.86772 C184.337847,106.976292 182.002429,104.627436 179.119914,104.627436 Z M195.129328,150.505676 L195.129328,150.50911 L51.8242095,150.50911 C49.6187263,152.596982 46.6438884,153.877864 43.3749862,153.877864 C36.5704721,153.877864 31.051635,148.338822 31.051635,141.505162 C31.051635,134.674936 36.5704721,129.13246 43.3749862,129.13246 C47.5602753,129.13246 51.2565968,131.2272 53.4825961,134.431122 L92.8325199,134.431122 L76.3751699,117.906714 L22.1066054,117.906714 C19.8464126,120.561196 16.4886071,122.243856 12.7409953,122.243856 C5.93990056,122.243856 0.417644144,116.70138 0.417644144,109.86772 C0.417644144,103.037494 5.93990056,97.4950182 12.7409953,97.4950182 C16.4886071,97.4950182 19.8464126,99.1776782 22.1066054,101.83216 L83.0087163,101.83216 L115.475481,134.431122 L193.652167,134.431122 L205.54468,122.48767 L205.54468,97.2512042 L193.645329,85.3043182 L121.09006,85.3043182 L137.550829,101.83216 L169.754303,101.83216 C172.014496,99.1776782 175.372302,97.4950182 179.119914,97.4950182 C185.921008,97.4950182 191.443265,103.037494 191.443265,109.86772 C191.443265,116.70138 185.921008,122.243856 179.119914,122.243856 C175.372302,122.243856 172.014496,120.561196 169.754303,117.906714 L130.920702,117.906714 L98.4505182,85.3043182 L55.7325309,85.3043182 C53.472338,87.9588002 50.1179519,89.6414602 46.3669208,89.6414602 C39.565826,89.6414602 34.0435696,84.0989842 34.0435696,77.2653242 C34.0435696,70.4316642 39.565826,64.8926222 46.3669208,64.8926222 C50.1179519,64.8926222 53.472338,66.5752822 55.7325309,69.2263302 L200.032682,69.2263302 L200.032682,69.2297642 L200.278875,69.2297642 L221.550675,90.5961122 L221.550675,106.413116 L221.550675,113.325758 L221.550675,123.940252 L221.550675,129.146196 L200.285714,150.505676 L195.129328,150.505676 Z" id="Fill-31"></path>
                    </g>
                </g>
            </g>
        </g>
    </g>
</svg>