<svg width="74" height="74" xmlns="http://www.w3.org/2000/svg" xmlns:xlink="http://www.w3.org/1999/xlink"><defs><path id="a" d="M0 .037h73.302v73.302H0z"/></defs><g fill="none" fill-rule="evenodd"><g transform="translate(.628 .624)"><mask id="b" fill="#fff"><use xlink:href="#a"/></mask><path d="M36.651.037C16.41.037 0 16.446 0 36.687 0 56.93 16.41 73.34 36.651 73.34c20.242 0 36.651-16.41 36.651-36.651 0-20.242-16.409-36.651-36.65-36.651m0 2.199c4.651 0 9.163.91 13.409 2.706a34.454 34.454 0 0 1 10.952 7.385 34.466 34.466 0 0 1 7.384 10.952 34.235 34.235 0 0 1 2.706 13.409c0 4.652-.91 9.164-2.706 13.41a34.466 34.466 0 0 1-7.384 10.951 34.446 34.446 0 0 1-10.952 7.384 34.233 34.233 0 0 1-13.41 2.707c-4.652 0-9.163-.91-13.41-2.706a34.446 34.446 0 0 1-10.951-7.385 34.466 34.466 0 0 1-7.384-10.952 34.235 34.235 0 0 1-2.707-13.41c0-4.651.91-9.163 2.707-13.409a34.466 34.466 0 0 1 7.384-10.951 34.454 34.454 0 0 1 10.952-7.384 34.235 34.235 0 0 1 13.41-2.707" fill="#32373C" mask="url(#b)"/></g><path d="M64.081 22.659c.131.973.206 2.016.206 3.14 0 3.098-.58 6.583-2.324 10.94L52.635 63.71c9.08-5.294 15.187-15.131 15.187-26.399 0-5.31-1.357-10.302-3.74-14.652zM37.816 39.983L28.65 66.61a30.519 30.519 0 0 0 8.629 1.245c3.557 0 6.969-.614 10.143-1.732a2.79 2.79 0 0 1-.219-.42l-9.387-25.72zm20.082-4.212c0-3.776-1.356-6.39-2.518-8.423-1.548-2.517-3-4.647-3-7.164 0-2.807 2.129-5.42 5.129-5.42.135 0 .264.016.395.024A30.429 30.429 0 0 0 37.28 6.77c-10.67 0-20.058 5.476-25.52 13.766.718.023 1.394.037 1.966.037 3.194 0 8.14-.388 8.14-.388 1.646-.096 1.841 2.323.196 2.517 0 0-1.655.194-3.495.29l11.122 33.084 6.685-20.046-4.759-13.038c-1.645-.096-3.203-.29-3.203-.29-1.647-.097-1.454-2.613.194-2.517 0 0 5.042.388 8.043.388 3.194 0 8.142-.388 8.142-.388 1.646-.096 1.84 2.323.194 2.517 0 0-1.657.194-3.495.29l11.038 32.832 3.15-9.984c1.4-4.364 2.221-7.455 2.221-10.068zM6.736 37.31c0 12.089 7.025 22.537 17.215 27.487L9.38 24.881a30.425 30.425 0 0 0-2.645 12.43z" fill="#32373C"/></g></svg>